<?xml version="1.0" encoding="utf-8"?>
<?xml-stylesheet type="text/xsl" href="rss1.xsl"?>
<rss version="2.0" xmlns:atom="http://www.w3.org/2005/Atom" xmlns:content="http://purl.org/rss/1.0/modules/content/" xmlns:dc="http://purl.org/dc/elements/1.1/" xmlns:media="http://search.yahoo.com/mrss/">
<channel>
 <title>Getty</title>
 <link>http://www.gettyimg.com/</link>
 <atom:link href="http://www.gettyimg.com/" rel="self" type="application/rss+xml" />

 
                <item>
                <title><![CDATA[【HD Live Performances】WEB-RiP - BLACKPINK - ‘Typa Girl’ Live at Coachella 2023 (Youtube 1080p Premium WEB-DL)]]></title>
                <link><![CDATA[https://sharemania.us/threads/blackpink-%E2%80%98typa-girl%E2%80%99-live-at-coachella-2023-youtube-1080p-premium-web-dl.221937/]]></link>
                <description><![CDATA[<article>
<blockquote class="messageText SelectQuoteContainer ugc baseHtml">
<div style="text-align: center"><b><span style="font-size: 26px">BLACKPINK - ‘Typa Girl’ Live at Coachella 2023<br>
<br>
<img src="https://i.ibb.co/P6whk46/typagirl.jpg" class="bbCodeImage LbImage" alt="[​IMG]" data-url="https://i.ibb.co/P6whk46/typagirl.jpg" style=""> </span></b>​</div><br>
<span style="font-size: 18px">Youtube 1080p Premium VP9 :<br>
<br>
<div class="ToggleTriggerAnchor bbCodeSpoilerContainer">
<button type="button" class="button bbCodeSpoilerButton ToggleTrigger Tooltip JsOnly" data-target="> .SpoilerTarget"><span>Spoiler: <span class="SpoilerTitle">Mediainfo</span></span></button>
<div class="SpoilerTarget bbCodeSpoilerText">General<br>
Unique ID : 169609727386460586174349408232326389830 (0x7F99A53149348058FA2C1D63DDA16046)<br>
Complete name : BLACKPINK - ‘Typa Girl’ Live at Coachella 2023 (1080p Premium VP9).mkv<br>
Format : Matroska<br>
Format version : Version 4<br>
File size : 140 MiB<br>
Duration : 3 min 58 s<br>
Overall bit rate : 4 919 kb/s<br>
Frame rate : 23.976 FPS<br>
Encoded date : 2023-06-02 21:07:25 UTC<br>
Writing application : mkvmerge v73.0.0 ('25 or 6 to 4') 64-bit<br>
Writing library : libebml v1.4.4 + libmatroska v1.7.1<br>
Video<br>
ID : 1<br>
Format : VP9<br>
Format profile : 0<br>
Codec ID : V_VP9<br>
Duration : 3 min 58 s<br>
Bit rate : 4 790 kb/s<br>
Width : 1 920 pixels<br>
Height : 1 080 pixels<br>
Display aspect ratio : 16:9<br>
Frame rate mode : Constant<br>
Frame rate : 23.976 (24000/1001) FPS<br>
Color space : YUV<br>
Chroma subsampling : 4:2:0 (Type 1)<br>
Bit depth : 8 bits<br>
Bits/(Pixel*Frame) : 0.096<br>
Stream size : 136 MiB (97%)<br>
Language : English<br>
Default : Yes<br>
Forced : No<br>
Color range : Limited<br>
Color primaries : BT.709<br>
Transfer characteristics : BT.709<br>
Matrix coefficients : BT.709<br>
Audio<br>
ID : 2<br>
Format : AAC LC<br>
Format/Info : Advanced Audio Codec Low Complexity<br>
Codec ID : 2 / A_AAC-2<br>
Duration : 3 min 58 s<br>
Bit rate : 128 kb/s<br>
Channel(s) : 2 channels<br>
Channel layout : L R<br>
Sampling rate : 44.1 kHz<br>
Frame rate : 43.066 FPS (1024 SPF)<br>
Compression mode : Lossy<br>
Stream size : 3.63 MiB (3%)<br>
Language : English<br>
Default : Yes<br>
Forced : No</div>
</div>
<div class="bbCodeBlock bbCodeVfcHH HiddenContent">
<div class="attribution type">Hidden Content:</div>
<blockquote>You must reply before you can see the hidden data contained here.</blockquote>
</div>1080p VP9 : <br>
<br>
<div class="ToggleTriggerAnchor bbCodeSpoilerContainer">
<button type="button" class="button bbCodeSpoilerButton ToggleTrigger Tooltip JsOnly" data-target="> .SpoilerTarget"><span>Spoiler: <span class="SpoilerTitle">Mediainfo</span></span></button>
<div class="SpoilerTarget bbCodeSpoilerText">General<br>
Unique ID : 25724157728845776316353413420187878745 (0x135A4AE5A1E559B6AF14DC40FA978559)<br>
Complete name : BLACKPINK - ‘Typa Girl’ Live at Coachella 2023 (1080p VP9).mkv<br>
Format : Matroska<br>
Format version : Version 4<br>
File size : 75.2 MiB<br>
Duration : 3 min 58 s<br>
Overall bit rate : 2 649 kb/s<br>
Frame rate : 23.976 FPS<br>
Encoded date : 2023-06-02 21:08:18 UTC<br>
Writing application : mkvmerge v73.0.0 ('25 or 6 to 4') 64-bit<br>
Writing library : libebml v1.4.4 + libmatroska v1.7.1<br>
Video<br>
ID : 1<br>
Format : VP9<br>
Format profile : 0<br>
Codec ID : V_VP9<br>
Duration : 3 min 58 s<br>
Bit rate : 2 519 kb/s<br>
Width : 1 920 pixels<br>
Height : 1 080 pixels<br>
Display aspect ratio : 16:9<br>
Frame rate mode : Constant<br>
Frame rate : 23.976 (24000/1001) FPS<br>
Color space : YUV<br>
Chroma subsampling : 4:2:0 (Type 1)<br>
Bit depth : 8 bits<br>
Bits/(Pixel*Frame) : 0.051<br>
Stream size : 71.5 MiB (95%)<br>
Language : English<br>
Default : Yes<br>
Forced : No<br>
Color range : Limited<br>
Color primaries : BT.709<br>
Transfer characteristics : BT.709<br>
Matrix coefficients : BT.709<br>
Audio<br>
ID : 2<br>
Format : AAC LC<br>
Format/Info : Advanced Audio Codec Low Complexity<br>
Codec ID : 2 / A_AAC-2<br>
Duration : 3 min 58 s<br>
Bit rate : 128 kb/s<br>
Channel(s) : 2 channels<br>
Channel layout : L R<br>
Sampling rate : 44.1 kHz<br>
Frame rate : 43.066 FPS (1024 SPF)<br>
Compression mode : Lossy<br>
Stream size : 3.63 MiB (5%)<br>
Language : English<br>
Default : Yes<br>
Forced : No</div>
</div>
<div class="bbCodeBlock bbCodeVfcHH HiddenContent">
<div class="attribution type">Hidden Content:</div>
<blockquote>You must reply before you can see the hidden data contained here.</blockquote>
</div>1080p AV1 :<br>
<br>
<div class="ToggleTriggerAnchor bbCodeSpoilerContainer">
<button type="button" class="button bbCodeSpoilerButton ToggleTrigger Tooltip JsOnly" data-target="> .SpoilerTarget"><span>Spoiler: <span class="SpoilerTitle">Mediainfo</span></span></button>
<div class="SpoilerTarget bbCodeSpoilerText">General<br>
Unique ID : 321321232340983330481975907596216890539 (0xF1BC37E3613C516854F8D3A59A40F4AB)<br>
Complete name : BLACKPINK - ‘Typa Girl’ Live at Coachella 2023 (1080p AV1).mkv<br>
Format : Matroska<br>
Format version : Version 4<br>
File size : 66.9 MiB<br>
Duration : 3 min 58 s<br>
Overall bit rate : 2 357 kb/s<br>
Frame rate : 23.976 FPS<br>
Encoded date : 2023-06-02 21:08:58 UTC<br>
Writing application : mkvmerge v73.0.0 ('25 or 6 to 4') 64-bit<br>
Writing library : libebml v1.4.4 + libmatroska v1.7.1<br>
Video<br>
ID : 1<br>
Format : AV1<br>
Format/Info : AOMedia Video 1<br>
Format profile : Main@L4.0<br>
Codec ID : V_AV1<br>
Duration : 3 min 58 s<br>
Bit rate : 2 227 kb/s<br>
Width : 1 920 pixels<br>
Height : 1 080 pixels<br>
Display aspect ratio : 16:9<br>
Frame rate mode : Constant<br>
Frame rate : 23.976 (24000/1001) FPS<br>
Color space : YUV<br>
Chroma subsampling : 4:2:0<br>
Bit depth : 8 bits<br>
Bits/(Pixel*Frame) : 0.045<br>
Stream size : 63.2 MiB (94%)<br>
Default : Yes<br>
Forced : No<br>
Color range : Limited<br>
Color primaries : BT.709<br>
Transfer characteristics : BT.709<br>
Matrix coefficients : BT.709<br>
Audio<br>
ID : 2<br>
Format : AAC LC<br>
Format/Info : Advanced Audio Codec Low Complexity<br>
Codec ID : 2 / A_AAC-2<br>
Duration : 3 min 58 s<br>
Bit rate : 128 kb/s<br>
Channel(s) : 2 channels<br>
Channel layout : L R<br>
Sampling rate : 44.1 kHz<br>
Frame rate : 43.066 FPS (1024 SPF)<br>
Compression mode : Lossy<br>
Stream size : 3.63 MiB (5%)<br>
Language : English<br>
Default : Yes<br>
Forced : No</div>
</div>
<div class="bbCodeBlock bbCodeVfcHH HiddenContent">
<div class="attribution type">Hidden Content:</div>
<blockquote>You must reply before you can see the hidden data contained here.</blockquote>
</div></span>
<div class="messageTextEndMarker">&nbsp;</div>
</blockquote>
</article>]]></description>
                <author><![CDATA[mekikkaa]]></author>
                </item>

                </channel></rss>